<svg width="128" height="128" viewBox="0 0 128 128" fill="none" xmlns="http://www.w3.org/2000/svg">
<rect width="128" height="128" rx="8" fill="#363636"/>
<g clip-path="url(#clip0_7212_239758)">
<path d="M22.6968 70.584C27.5 70.584 31.3937 66.6776 31.3937 61.8588C31.3937 57.04 27.5 53.1336 22.6968 53.1336C17.8937 53.1336 14 57.04 14 61.8588C14 66.6776 17.8937 70.584 22.6968 70.584Z" fill="white"/>
<path d="M97.4788 117.711C102.282 117.711 106.176 113.805 106.176 108.986C106.176 104.167 102.282 100.261 97.4788 100.261C92.6756 100.261 88.7819 104.167 88.7819 108.986C88.7819 113.805 92.6756 117.711 97.4788 117.711Z" fill="white"/>
<path d="M92.2715 33.9601C97.0747 33.9601 100.968 30.0537 100.968 25.2349C100.968 20.4161 97.0747 16.5097 92.2715 16.5097C87.4684 16.5097 83.5747 20.4161 83.5747 25.2349C83.5747 30.0537 87.4684 33.9601 92.2715 33.9601Z" fill="white"/>
<path d="M110.748 44.921L97.1767 58.5368C96.4315 59.2845 96.4316 60.4967 97.1768 61.2444L97.1961 61.2638C97.9414 62.0115 99.1496 62.0116 99.8949 61.2639L113.466 47.648C114.212 46.9003 114.212 45.688 113.467 44.9403L113.447 44.921C112.702 44.1733 111.494 44.1733 110.748 44.921Z" fill="white"/>
<path d="M113.435 58.5145L99.863 44.8987C99.1177 44.151 97.9095 44.1511 97.1642 44.8988L97.145 44.9181C96.3997 45.6658 96.3996 46.878 97.1449 47.6257L110.716 61.2415C111.462 61.9892 112.67 61.9893 113.415 61.2415L113.435 61.2222C114.18 60.4745 114.18 59.2622 113.435 58.5145Z" fill="white"/>
<path d="M65.4762 73.4767L51.9048 87.0924C51.1595 87.8401 51.1595 89.0524 51.9047 89.8001L51.924 89.8195C52.6693 90.5672 53.8776 90.5672 54.6229 89.8194L68.1944 76.2037C68.9397 75.456 68.9397 74.2437 68.1944 73.496L68.1751 73.4767C67.4299 72.729 66.2215 72.729 65.4762 73.4767Z" fill="white"/>
<path d="M68.205 87.0812L54.6335 73.4654C53.8882 72.7177 52.6799 72.7177 51.9346 73.4654L51.9153 73.4848C51.1701 74.2325 51.1701 75.4448 51.9154 76.1925L65.4868 89.8082C66.2321 90.5559 67.4405 90.5559 68.1857 89.8082L68.205 89.7889C68.9503 89.0412 68.9503 87.8289 68.205 87.0812Z" fill="white"/>
<path d="M26.5955 50.1249C30.4686 38.4865 38.4613 28.6771 49.06 22.5544C56.6877 18.3961 65.3072 16.4187 73.9782 16.8379" stroke="white" stroke-miterlimit="10"/>
<path d="M71.1974 23.5391L83.6838 18.1235L72.7514 10L71.1974 23.5391Z" fill="white"/>
<path d="M24.9052 72.5807C29.1275 85.3335 37.5873 96.2446 48.8691 103.488C57.2563 108.699 66.8468 111.639 76.7045 112.022" stroke="white" stroke-miterlimit="10"/>
<path d="M74.8233 118.696L86.4372 111.639L74.5507 105.075L74.8233 118.696Z" fill="white"/>
</g>
<defs>
<clipPath id="clip0_7212_239758">
<rect width="100" height="108.696" fill="white" transform="translate(14 10)"/>
</clipPath>
</defs>
</svg>
