<svg width="212" height="40" viewBox="0 0 212 40" fill="none" xmlns="http://www.w3.org/2000/svg">
<path d="M5.40016 11.4158C5.61834 10.4156 6.74395 9.88326 7.68413 10.3356L16.4787 14.567C17.392 15.0064 17.6613 16.1529 17.0352 16.9366L3.66756 33.67C2.61874 34.9829 0.47196 34.0085 0.827033 32.3806L5.40016 11.4158Z" fill="#608FFD"/>
<path d="M26.3815 35.2099C26.1785 36.1558 25.1232 36.6585 24.2433 36.2287L13.0093 30.7399C12.1592 30.3246 11.908 29.2476 12.489 28.5094L29.5512 6.8305C30.5284 5.58881 32.5394 6.50546 32.2097 8.04234L26.3815 35.2099Z" fill="#383838"/>
<path d="M43.0068 32.9518L45.4688 15.6337H50.0039L49.5504 19.0593L49.356 18.1712C49.9175 17.135 50.6626 16.395 51.5912 15.9509C52.5414 15.4857 53.6104 15.2531 54.7982 15.2531C56.1588 15.2531 57.3141 15.5703 58.2644 16.2046C59.2146 16.8179 59.9056 17.6531 60.3376 18.7104C60.7911 19.7676 60.9207 20.9518 60.7263 22.2628L59.2038 32.9518H54.3447L55.77 22.8337C55.9212 21.8399 55.7376 21.0469 55.2193 20.4549C54.701 19.8417 53.9668 19.535 53.0165 19.535C52.3903 19.535 51.8072 19.6725 51.2673 19.9474C50.749 20.2223 50.3171 20.6029 49.9715 21.0892C49.626 21.5756 49.3992 22.1571 49.2912 22.8337L47.8659 32.9518H43.0068ZM71.6959 33.3324C69.9035 33.3324 68.3486 32.9624 67.0312 32.2223C65.7139 31.461 64.6989 30.4355 63.9862 29.1456C63.2951 27.8557 62.9496 26.4284 62.9496 24.8637C62.9496 23.5315 63.1871 22.2945 63.6623 21.1527C64.1374 19.9897 64.8068 18.9641 65.6707 18.076C66.5345 17.1879 67.5387 16.5007 68.6833 16.0143C69.8279 15.5068 71.0697 15.2531 72.4086 15.2531C74.2011 15.2531 75.7128 15.602 76.9438 16.2998C78.1747 16.9765 79.1033 17.9068 79.7296 19.091C80.3775 20.2751 80.7014 21.6179 80.7014 23.1192C80.7014 23.5209 80.669 23.9227 80.6043 24.3245C80.5395 24.7262 80.4531 25.1597 80.3451 25.6249H67.0636L67.3228 22.1359H77.8184L75.3888 23.7218C75.6696 22.8337 75.7236 22.0408 75.5508 21.343C75.378 20.6452 75.0109 20.0954 74.4494 19.6936C73.9095 19.2707 73.2185 19.0593 72.3762 19.0593C71.2748 19.0593 70.4002 19.3342 69.7523 19.8839C69.1044 20.4337 68.6293 21.1632 68.327 22.0725C68.0462 22.9817 67.9059 23.9861 67.9059 25.0857C67.9059 25.9527 68.057 26.7033 68.3594 27.3377C68.6617 27.9509 69.1044 28.4161 69.6875 28.7333C70.2706 29.0505 70.9725 29.2091 71.7931 29.2091C72.6786 29.2091 73.456 29.0293 74.1255 28.6698C74.795 28.3104 75.3133 27.8346 75.6804 27.2425L79.5029 29.1773C79.0925 30.0231 78.4987 30.7632 77.7212 31.3976C76.9438 32.0108 76.0367 32.4866 75.0001 32.8249C73.9851 33.1632 72.8837 33.3324 71.6959 33.3324ZM80.4921 32.9518L88.0075 24.1342L83.116 15.6337H88.3963L92.1216 22.358H89.6596L95.2638 15.6337H101.062L93.6117 24.261L98.5355 32.9518H93.3525L89.5624 26.2276H91.7652L86.2583 32.9518H80.4921ZM109.454 33.1421C107.273 33.1421 105.653 32.5606 104.595 31.3976C103.537 30.2135 103.148 28.6064 103.429 26.5765L104.401 19.7571H101.42L102.003 15.6337H102.068C102.975 15.6337 103.72 15.3906 104.303 14.9042C104.908 14.4179 105.275 13.7306 105.405 12.8425L105.567 11.7007H110.491L109.908 15.6337H113.989L113.406 19.7571H109.325L108.353 26.513C108.266 27.1051 108.288 27.5914 108.417 27.972C108.547 28.3315 108.795 28.5958 109.163 28.765C109.551 28.9342 110.07 29.0187 110.717 29.0187C110.912 29.0187 111.095 29.0187 111.268 29.0187C111.463 28.9976 111.7 28.9659 111.981 28.9236L111.624 32.9518C111.301 33.0364 110.933 33.0892 110.523 33.1104C110.134 33.1315 109.778 33.1421 109.454 33.1421Z" fill="#608FFD"/>
<path d="M119.166 32.9515L115.538 15.6334H120.397L122.891 28.1303L121.11 28.0986L127.783 15.6334H131.994L134.877 28.0986L133.193 28.1303L139.25 15.6334H144.368L135.784 32.9515H131.573L128.657 19.5665H130.374L123.377 32.9515H119.166ZM149.279 33.3321C148.091 33.3321 147.054 33.1524 146.169 32.7929C145.283 32.4334 144.592 31.9048 144.096 31.207C143.62 30.4881 143.383 29.6211 143.383 28.6061C143.383 27.4643 143.674 26.5022 144.258 25.7198C144.862 24.9163 145.672 24.2713 146.687 23.785C147.724 23.2986 148.89 22.9603 150.186 22.77L155.757 21.9136L155.401 25.4026L150.866 26.2273C150.196 26.3541 149.613 26.5867 149.117 26.9251C148.642 27.2422 148.404 27.7074 148.404 28.3207C148.404 28.8493 148.598 29.2405 148.987 29.4942C149.376 29.7268 149.872 29.8431 150.477 29.8431C151.276 29.8431 151.978 29.6634 152.583 29.3039C153.209 28.9444 153.717 28.4687 154.105 27.8766C154.516 27.2845 154.764 26.6396 154.85 25.9418L155.466 21.533C155.531 21.0466 155.444 20.6343 155.207 20.296C154.969 19.9577 154.634 19.6933 154.202 19.503C153.771 19.3127 153.295 19.2176 152.777 19.2176C151.849 19.2176 151.017 19.4713 150.283 19.9788C149.549 20.4651 148.998 21.0889 148.631 21.8502L144.873 19.8519C145.327 18.8792 145.964 18.0546 146.784 17.3779C147.605 16.7013 148.555 16.1832 149.635 15.8237C150.715 15.4431 151.859 15.2528 153.069 15.2528C154.559 15.2528 155.876 15.5277 157.021 16.0775C158.187 16.6273 159.072 17.3885 159.677 18.3612C160.303 19.3339 160.519 20.4651 160.325 21.755L158.738 32.9515H154.17L154.559 30.1603L155.855 30.0651C155.25 30.8264 154.613 31.4502 153.943 31.9365C153.274 32.4229 152.55 32.7718 151.773 32.9832C151.017 33.2158 150.186 33.3321 149.279 33.3321ZM162.301 32.9515L165.735 8.94092H170.626L167.193 32.9515H162.301ZM170.748 32.9515L174.181 8.94092H179.073L175.639 32.9515H170.748ZM188.491 33.3321C186.699 33.3321 185.144 32.9621 183.826 32.222C182.509 31.4607 181.494 30.4352 180.781 29.1453C180.09 27.8555 179.745 26.4281 179.745 24.8634C179.745 23.5312 179.982 22.2942 180.457 21.1524C180.932 19.9894 181.602 18.9638 182.466 18.0757C183.33 17.1876 184.334 16.5004 185.478 16.014C186.623 15.5066 187.865 15.2528 189.204 15.2528C190.996 15.2528 192.508 15.6017 193.739 16.2995C194.97 16.9762 195.898 17.9066 196.525 19.0907C197.173 20.2748 197.497 21.6176 197.497 23.1189C197.497 23.5207 197.464 23.9224 197.399 24.3242C197.335 24.7259 197.248 25.1594 197.14 25.6246H183.859L184.118 22.1356H194.613L192.184 23.7215C192.465 22.8334 192.519 22.0405 192.346 21.3427C192.173 20.6449 191.806 20.0951 191.245 19.6933C190.705 19.2704 190.014 19.059 189.171 19.059C188.07 19.059 187.195 19.3339 186.547 19.8836C185.9 20.4334 185.424 21.1629 185.122 22.0722C184.841 22.9814 184.701 23.9859 184.701 25.0854C184.701 25.9524 184.852 26.703 185.154 27.3374C185.457 27.9506 185.9 28.4158 186.483 28.733C187.066 29.0502 187.768 29.2088 188.588 29.2088C189.474 29.2088 190.251 29.029 190.921 28.6696C191.59 28.3101 192.108 27.8343 192.475 27.2422L196.298 29.177C195.888 30.0229 195.294 30.7629 194.516 31.3973C193.739 32.0105 192.832 32.4863 191.795 32.8246C190.78 33.1629 189.679 33.3321 188.491 33.3321ZM207.427 33.1418C205.246 33.1418 203.626 32.5603 202.568 31.3973C201.51 30.2132 201.121 28.6061 201.402 26.5762L202.374 19.7568H199.393L199.976 15.6334H200.041C200.948 15.6334 201.693 15.3903 202.276 14.9039C202.881 14.4176 203.248 13.7303 203.378 12.8422L203.54 11.7004H208.464L207.881 15.6334H211.962L211.379 19.7568H207.297L206.326 26.5127C206.239 27.1048 206.261 27.5911 206.39 27.9718C206.52 28.3312 206.768 28.5955 207.136 28.7647C207.524 28.9339 208.043 29.0185 208.69 29.0185C208.885 29.0185 209.068 29.0185 209.241 29.0185C209.435 28.9973 209.673 28.9656 209.954 28.9233L209.597 32.9515C209.274 33.0361 208.906 33.0889 208.496 33.1101C208.107 33.1312 207.751 33.1418 207.427 33.1418Z" fill="#383838"/>
</svg>
